<svg viewBox="0 0 500 500" xmlns="http://www.w3.org/2000/svg" xmlns:xlink="http://www.w3.org/1999/xlink">
  <defs>
    <linearGradient y2="236" x2="96" y1="236" x1="32" gradientTransform="translate(604.81684,170.58641)" gradientUnits="userSpaceOnUse" id="linearGradient1099" xlink:href="#linearGradient1036"></linearGradient>
    <linearGradient id="linearGradient1036">
      <stop id="stop1032" offset="0" style="stop-color:#d5d3cf;stop-opacity:1;"></stop>
      <stop id="stop1034" offset="1" style="stop-color:#f6f5f4;stop-opacity:1"></stop>
    </linearGradient>
    <radialGradient r="32" cy="-76" cx="-244" gradientTransform="matrix(0.88333331,0,0,0.88333331,-460.35018,463.11973)" gradientUnits="userSpaceOnUse" id="radialGradient1103" xlink:href="#linearGradient1069"></radialGradient>
    <linearGradient id="linearGradient1069">
      <stop id="stop1065" offset="0" style="stop-color:#d5d3cf;stop-opacity:1"></stop>
      <stop id="stop1067-1" offset="1" style="stop-color:#949390;stop-opacity:1"></stop>
    </linearGradient>
    <linearGradient gradientUnits="userSpaceOnUse" y2="232" x2="64" y1="262.5" x1="64" id="linearGradient1027" gradientTransform="translate(-470.5864,432.81685)" xlink:href="#linearGradient1025"></linearGradient>
    <linearGradient id="linearGradient1025">
      <stop id="stop1021" offset="0" style="stop-color:#9a9996;stop-opacity:1"></stop>
      <stop id="stop1023" offset="1" style="stop-color:#77767b;stop-opacity:1"></stop>
    </linearGradient>
    <clipPath clipPathUnits="userSpaceOnUse" id="clipPath1609-7">
      <path id="path1611-5" d="m 252,116 28,-28 v -8 h -36 v 36 z" style="fill:#e74747;stroke:none;stroke-width:0.25px;stroke-linecap:butt;stroke-linejoin:miter;stroke-opacity:1"></path>
    </clipPath>
  </defs>
  <path style="stroke: rgb(0, 0, 0); fill: rgb(121, 203, 96); stroke-width: 6px;" d="M 98.181 206.789 C 168.988 206.789 238.851 204.412 309.083 204.412 C 346.223 204.412 382.923 198.272 411.589 212.733 C 420.229 217.093 422.486 231.158 426.905 240.074 C 428.645 243.586 424.261 254.049 426.905 256.717 C 431.309 261.16 425.053 273.188 428.084 279.303 C 432.429 288.073 428.353 311.672 435.153 318.532 C 438.746 322.158 433.455 334.651 437.509 338.741 C 440.899 342.16 437.439 357.621 439.866 362.516 C 448.501 379.939 443.681 401.122 451.648 417.198 C 455.271 424.508 449.831 439.14 455.183 444.539 C 456.324 445.691 456.361 458.144 456.361 459.994 C 456.361 463.164 459.503 469.504 456.361 469.504 C 447.886 469.504 443.865 454.878 437.509 451.672 C 419.475 442.575 401.629 426.925 383.311 420.765 C 375.934 418.284 362.867 420.765 355.033 420.765 C 329.378 420.765 292.927 415.839 271.38 426.708 C 260.086 432.406 240.166 422.246 228.964 427.897 C 217.973 433.441 193.386 430.274 180.656 430.274 C 165.732 430.274 150.807 430.274 135.884 430.274 C 131.599 430.274 121.958 432.166 118.21 430.274 C 98.913 420.54 78.43 416.745 60.477 407.688 C 57.495 406.184 53.839 396.236 51.051 393.423 C 47.616 389.957 48.695 380.528 48.695 374.403 C 48.695 359.616 43.249 337.841 49.873 324.476 C 53 318.167 49.873 301.864 49.873 294.757 C 49.873 258.912 43.463 219.533 71.082 205.601 C 78.829 201.692 98.752 205.601 107.606 205.601"></path>
  <path style="stroke: rgb(0, 0, 0); fill: rgb(121, 203, 96); stroke-width: 6px;" d="M 68.725 212.733 C 78.432 207.836 80.507 188.142 80.507 178.26 C 80.507 142.226 68.965 122.751 49.873 93.858 C 45.081 86.605 35.412 61.87 49.873 57.007 C 58.972 53.946 85.771 49.241 92.29 55.818 C 97.496 61.071 99.431 73.431 97.002 80.781 C 96.158 83.336 93.716 96.486 95.824 98.613 C 101.448 104.287 101.412 117.022 105.25 124.765 C 118.453 151.41 130.541 191.266 156.486 204.355 C 173.415 212.895 181.669 185.726 186.547 175.882 C 194.116 160.608 195.778 128.928 190.082 111.689 C 185.279 97.151 175.539 78.032 183.012 62.95 C 186.215 56.487 198.145 55.818 204.22 55.818 C 221.604 55.818 238.296 53.251 246.637 70.083 C 255.257 87.477 233.912 117.87 230.142 133.086 C 226.249 148.799 225.055 181.507 228.964 197.279 C 231.297 206.7 239.568 217.617 239.568 224.621"></path>
  <path style="stroke: rgb(0, 0, 0); fill: rgb(121, 203, 96); stroke-width: 6px;" d="M 101.715 262.66 C 104.178 272.6 109.949 279.289 117.032 286.435 C 127.957 297.458 135.793 307.422 152.379 310.21 C 181.118 315.043 210.112 269.884 210.112 244.829"></path>
  <path style="stroke: rgb(0, 0, 0); fill: rgb(121, 203, 96); stroke-width: 6px;" d="M 332.647 316.155 C 332.647 346.175 296.971 342.971 311.439 313.777 C 317.588 301.368 353.412 313.93 347.964 330.42 C 342.845 345.913 307.26 352.356 296.122 341.119 C 287.202 332.119 283.291 318.941 285.518 305.455 C 288.824 285.441 315.044 266.917 335.003 269.793 C 358.156 273.13 377.804 296.277 380.955 318.532 C 390.478 385.795 268.739 406.872 258.419 333.986 C 255.616 314.188 264.193 296.825 274.914 281.68 C 297.427 249.881 325.544 223.817 366.816 237.697 C 374.844 240.397 380.223 248.14 386.846 253.15 C 391.905 256.979 398.095 258.72 402.163 263.849 C 421.565 288.32 422.077 324.94 415.123 353.006 C 413.665 358.892 409.845 364.226 408.054 369.648 C 406.994 372.856 401.209 377.162 398.915 376.877"></path>
  <path style="stroke: rgb(0, 0, 0); stroke-width: 6px;" d="M 67.767 85.36 C 61.889 82.395 62.343 75.993 66.71 72.688 C 69.482 70.59 76.173 71.721 78.54 74.109 C 85.042 80.67 72.342 90.022 67.274 84.908"></path>
  <path style="stroke: rgb(0, 0, 0); stroke-width: 6px;" d="M 210.641 86.613 C 205.603 84.918 203.799 77.886 207.825 73.825 C 210.325 71.302 214.943 71.218 218.247 71.551 C 220.951 71.824 225.732 72.676 227.26 75.246 C 229.771 79.468 228.973 88.165 224.162 90.591 C 223.129 91.113 220.719 90.418 219.937 90.023 C 218.371 89.233 215.768 89.19 214.022 88.602 C 212.467 88.08 210.005 86.045 208.67 86.045"></path>
</svg>